# xmcd
#
# Track frame offsets:
#	150
#	11957
#	27391
#	43857
#	63527
#	81775
#	103336
#	121977
#	139364
#	154090
#	170229
#	180205
#	196223
#	213325
#
# Disc length: 3073 seconds
#
# Revision: 1
# Processed by: cddbd v1.5.2PL0 Copyright (c) Steve Scherf et al.
# Submitted via: audiograbber 1.83.01
#
DISCID=cb0bff0e
DTITLE=Darren Johnson - Country Song
DYEAR=1900
DGENRE=Country
TTITLE0=Wings To Fly
TTITLE1=Not Looking Back
TTITLE2=Land Of The Free
TTITLE3=You With Me
TTITLE4=Country Song
TTITLE5=Looking For A Way
TTITLE6=Sunburnt Country
TTITLE7=Any Clearer
TTITLE8=Why I Love Australia
TTITLE9=Uluru
TTITLE10=Run With Me
TTITLE11=Light Horse
TTITLE12=Goldie
TTITLE13=You Were There
EXTD=
EXTT0=
EXTT1=
EXTT2=
EXTT3=
EXTT4=
EXTT5=
EXTT6=
EXTT7=
EXTT8=
EXTT9=
EXTT10=
EXTT11=
EXTT12=
EXTT13=
PLAYORDER=
